<mxfile host="Electron" agent="Mozilla/5.0 (Macintosh; Intel Mac OS X 10_15_7) AppleWebKit/537.36 (KHTML, like Gecko) draw.io/27.0.9 Chrome/134.0.6998.205 Electron/35.4.0 Safari/537.36" version="27.0.9">
  <diagram id="python-class-diagram" name="Python Class Diagram">
    <mxGraphModel dx="582" dy="395" grid="1" gridSize="10" guides="1" tooltips="1" connect="1" arrows="1" fold="1" page="1" pageScale="1" pageWidth="1400" pageHeight="1000" math="0" shadow="0">
      <root>
        <mxCell id="0" />
        <mxCell id="1" parent="0" />
        <mxCell id="2" value="RendererUtils" style="swimlane;fontStyle=1;align=center;verticalAlign=top;childLayout=stackLayout;horizontal=1;startSize=26;horizontalStack=0;resizeParent=1;resizeParentMax=0;resizeLast=0;collapsible=1;marginBottom=0;fillColor=#ffe6cc;strokeColor=#d79b00;" parent="1" vertex="1">
          <mxGeometry x="420" y="70" width="280" height="120" as="geometry" />
        </mxCell>
        <mxCell id="3" value="- _instance: RendererUtils&#xa;- _config: Configuration" style="text;strokeColor=none;fillColor=none;align=left;verticalAlign=top;spacingLeft=4;spacingRight=4;overflow=hidden;rotatable=0;points=[[0,0.5],[1,0.5]];portConstraint=eastwest;collapsible=1;collapsed=0;" parent="2" vertex="1">
          <mxGeometry y="26" width="280" height="34" as="geometry" />
        </mxCell>
        <mxCell id="4" value="" style="line;strokeWidth=1;fillColor=none;align=left;verticalAlign=middle;spacingTop=-1;spacingLeft=3;spacingRight=3;rotatable=0;labelPosition=right;points=[];portConstraint=eastwest;strokeColor=inherit;" parent="2" vertex="1">
          <mxGeometry y="60" width="280" height="8" as="geometry" />
        </mxCell>
        <mxCell id="5" value="+ __new__(): RendererUtils&#xa;+ desired_renderer_class_name: str&#xa;+ desired_renderer_module_name: str" style="text;strokeColor=none;fillColor=none;align=left;verticalAlign=top;spacingLeft=4;spacingRight=4;overflow=hidden;rotatable=0;points=[[0,0.5],[1,0.5]];portConstraint=eastwest;collapsible=1;collapsed=0;" parent="2" vertex="1">
          <mxGeometry y="68" width="280" height="52" as="geometry" />
        </mxCell>
        <mxCell id="6" value="RendererObject" style="swimlane;fontStyle=1;align=center;verticalAlign=top;childLayout=stackLayout;horizontal=1;startSize=26;horizontalStack=0;resizeParent=1;resizeParentMax=0;resizeLast=0;collapsible=1;marginBottom=0;fillColor=#ffe6cc;strokeColor=#d79b00;" parent="1" vertex="1">
          <mxGeometry x="420" y="296" width="280" height="120" as="geometry" />
        </mxCell>
        <mxCell id="7" value="- _instance: RendererObject&#xa;- _logging_utils: LoggingUtils&#xa;- _renderer_utils: RendererUtils&#xa;- _config: Configuration&#xa;- data: Dict[str, Any]" style="text;strokeColor=none;fillColor=none;align=left;verticalAlign=top;spacingLeft=4;spacingRight=4;overflow=hidden;rotatable=0;points=[[0,0.5],[1,0.5]];portConstraint=eastwest;collapsible=1;collapsed=0;" parent="6" vertex="1">
          <mxGeometry y="26" width="280" height="60" as="geometry" />
        </mxCell>
        <mxCell id="8" value="" style="line;strokeWidth=1;fillColor=none;align=left;verticalAlign=middle;spacingTop=-1;spacingLeft=3;spacingRight=3;rotatable=0;labelPosition=right;points=[];portConstraint=eastwest;strokeColor=inherit;" parent="6" vertex="1">
          <mxGeometry y="86" width="280" height="8" as="geometry" />
        </mxCell>
        <mxCell id="9" value="+ render(): void" style="text;strokeColor=none;fillColor=none;align=left;verticalAlign=top;spacingLeft=4;spacingRight=4;overflow=hidden;rotatable=0;points=[[0,0.5],[1,0.5]];portConstraint=eastwest;collapsible=1;collapsed=0;" parent="6" vertex="1">
          <mxGeometry y="94" width="280" height="26" as="geometry" />
        </mxCell>
        <mxCell id="10" value="RendererFactory" style="swimlane;fontStyle=1;align=center;verticalAlign=top;childLayout=stackLayout;horizontal=1;startSize=26;horizontalStack=0;resizeParent=1;resizeParentMax=0;resizeLast=0;collapsible=1;marginBottom=0;fillColor=#ffe6cc;strokeColor=#d79b00;" parent="1" vertex="1">
          <mxGeometry x="380" y="860" width="300" height="120" as="geometry" />
        </mxCell>
        <mxCell id="11" value="- _instance: RendererFactory&#xa;- _generic_utils: GenericUtils&#xa;- _config: Configuration" style="text;strokeColor=none;fillColor=none;align=left;verticalAlign=top;spacingLeft=4;spacingRight=4;overflow=hidden;rotatable=0;points=[[0,0.5],[1,0.5]];portConstraint=eastwest;collapsible=1;collapsed=0;" parent="10" vertex="1">
          <mxGeometry y="26" width="300" height="44" as="geometry" />
        </mxCell>
        <mxCell id="12" value="" style="line;strokeWidth=1;fillColor=none;align=left;verticalAlign=middle;spacingTop=-1;spacingLeft=3;spacingRight=3;rotatable=0;labelPosition=right;points=[];portConstraint=eastwest;strokeColor=inherit;" parent="10" vertex="1">
          <mxGeometry y="70" width="300" height="8" as="geometry" />
        </mxCell>
        <mxCell id="13" value="+ __new__(): RendererFactory&#xa;+ get_renderer(): RendererObject" style="text;strokeColor=none;fillColor=none;align=left;verticalAlign=top;spacingLeft=4;spacingRight=4;overflow=hidden;rotatable=0;points=[[0,0.5],[1,0.5]];portConstraint=eastwest;collapsible=1;collapsed=0;" parent="10" vertex="1">
          <mxGeometry y="78" width="300" height="42" as="geometry" />
        </mxCell>
        <mxCell id="14" value="FastHtmlRenderer" style="swimlane;fontStyle=1;align=center;verticalAlign=top;childLayout=stackLayout;horizontal=1;startSize=26;horizontalStack=0;resizeParent=1;resizeParentMax=0;resizeLast=0;collapsible=1;marginBottom=0;fillColor=#ffe6cc;strokeColor=#d79b00;" parent="1" vertex="1">
          <mxGeometry x="230" y="580" width="250" height="190" as="geometry" />
        </mxCell>
        <mxCell id="15" value="- app: Starlette" style="text;strokeColor=none;fillColor=none;align=left;verticalAlign=top;spacingLeft=4;spacingRight=4;overflow=hidden;rotatable=0;points=[[0,0.5],[1,0.5]];portConstraint=eastwest;collapsible=1;collapsed=0;" parent="14" vertex="1">
          <mxGeometry y="26" width="250" height="20" as="geometry" />
        </mxCell>
        <mxCell id="16" value="" style="line;strokeWidth=1;fillColor=none;align=left;verticalAlign=middle;spacingTop=-1;spacingLeft=3;spacingRight=3;rotatable=0;labelPosition=right;points=[];portConstraint=eastwest;strokeColor=inherit;" parent="14" vertex="1">
          <mxGeometry y="46" width="250" height="8" as="geometry" />
        </mxCell>
        <mxCell id="17" value="+ run(): void&#xa;+ render(): void&#xa;+ index(): HTMLResponse&#xa;+ get_node_details(): HTMLResponse&#xa;+ get_node_content(): HTMLResponse&#xa;+ find_node_by_id(): Optional[Dict]&#xa;+ generate_node_details(): str&#xa;+ render_tree_node(): str&#xa;+ render_page(): str" style="text;strokeColor=none;fillColor=none;align=left;verticalAlign=top;spacingLeft=4;spacingRight=4;overflow=hidden;rotatable=0;points=[[0,0.5],[1,0.5]];portConstraint=eastwest;collapsible=1;collapsed=0;" parent="14" vertex="1">
          <mxGeometry y="54" width="250" height="136" as="geometry" />
        </mxCell>
        <mxCell id="18" value="StreamlitRenderer" style="swimlane;fontStyle=1;align=center;verticalAlign=top;childLayout=stackLayout;horizontal=1;startSize=26;horizontalStack=0;resizeParent=1;resizeParentMax=0;resizeLast=0;collapsible=1;marginBottom=0;fillColor=#ffe6cc;strokeColor=#d79b00;" parent="1" vertex="1">
          <mxGeometry x="589" y="580" width="280" height="176" as="geometry">
            <mxRectangle x="580" y="250" width="140" height="30" as="alternateBounds" />
          </mxGeometry>
        </mxCell>
        <mxCell id="19" value="- json_file_path: str&#xa;- data: Dict[str, Any]" style="text;strokeColor=none;fillColor=none;align=left;verticalAlign=top;spacingLeft=4;spacingRight=4;overflow=hidden;rotatable=0;points=[[0,0.5],[1,0.5]];portConstraint=eastwest;collapsible=1;collapsed=0;" parent="18" vertex="1">
          <mxGeometry y="26" width="280" height="34" as="geometry" />
        </mxCell>
        <mxCell id="20" value="" style="line;strokeWidth=1;fillColor=none;align=left;verticalAlign=middle;spacingTop=-1;spacingLeft=3;spacingRight=3;rotatable=0;labelPosition=right;points=[];portConstraint=eastwest;strokeColor=inherit;" parent="18" vertex="1">
          <mxGeometry y="60" width="280" height="8" as="geometry" />
        </mxCell>
        <mxCell id="21" value="+ toggle_node(): void&#xa;+ select_node(): void&#xa;+ render(): void&#xa;- _load_json(): Dict[str, Any]&#xa;- _get_node_details(): str&#xa;- _render_tree_node(): void&#xa;- _create_menu(): void" style="text;strokeColor=none;fillColor=none;align=left;verticalAlign=top;spacingLeft=4;spacingRight=4;overflow=hidden;rotatable=0;points=[[0,0.5],[1,0.5]];portConstraint=eastwest;collapsible=1;collapsed=0;" parent="18" vertex="1">
          <mxGeometry y="68" width="280" height="108" as="geometry" />
        </mxCell>
        <mxCell id="22" value="Configuration" style="swimlane;fontStyle=1;align=center;verticalAlign=top;childLayout=stackLayout;horizontal=1;startSize=26;horizontalStack=0;resizeParent=1;resizeParentMax=0;resizeLast=0;collapsible=1;marginBottom=0;fillColor=#e1d5e7;strokeColor=#9673a6;" parent="1" vertex="1" collapsed="1">
          <mxGeometry x="1050" y="630" width="110" height="30" as="geometry">
            <mxRectangle x="950" y="36" width="280" height="154" as="alternateBounds" />
          </mxGeometry>
        </mxCell>
        <mxCell id="23" value="- _instance: Configuration&#xa;- _config_content: Dict" style="text;strokeColor=none;fillColor=none;align=left;verticalAlign=top;spacingLeft=4;spacingRight=4;overflow=hidden;rotatable=0;points=[[0,0.5],[1,0.5]];portConstraint=eastwest;collapsible=1;collapsed=0;" parent="22" vertex="1">
          <mxGeometry y="26" width="280" height="28" as="geometry" />
        </mxCell>
        <mxCell id="24" value="" style="line;strokeWidth=1;fillColor=none;align=left;verticalAlign=middle;spacingTop=-1;spacingLeft=3;spacingRight=3;rotatable=0;labelPosition=right;points=[];portConstraint=eastwest;strokeColor=inherit;" parent="22" vertex="1">
          <mxGeometry y="54" width="280" height="8" as="geometry" />
        </mxCell>
        <mxCell id="25" value="+ __new__(): Configuration&#xa;+ safe_load_config(): void&#xa;+ str_value(): str&#xa;+ int_value(): int&#xa;+ float_value(): float&#xa;+ bool_value(): bool&#xa;+ list_value(): list&#xa;+ items(): dict" style="text;strokeColor=none;fillColor=none;align=left;verticalAlign=top;spacingLeft=4;spacingRight=4;overflow=hidden;rotatable=0;points=[[0,0.5],[1,0.5]];portConstraint=eastwest;collapsible=1;collapsed=0;" parent="22" vertex="1">
          <mxGeometry y="62" width="280" height="92" as="geometry" />
        </mxCell>
        <mxCell id="26" value="LoggingUtils" style="swimlane;fontStyle=1;align=center;verticalAlign=top;childLayout=stackLayout;horizontal=1;startSize=26;horizontalStack=0;resizeParent=1;resizeParentMax=0;resizeLast=0;collapsible=1;marginBottom=0;fillColor=#e1d5e7;strokeColor=#9673a6;" parent="1" vertex="1" collapsed="1">
          <mxGeometry x="240" y="322" width="110" height="30" as="geometry">
            <mxRectangle x="50" y="500" width="280" height="154" as="alternateBounds" />
          </mxGeometry>
        </mxCell>
        <mxCell id="27" value="- _instance: LoggingUtils" style="text;strokeColor=none;fillColor=none;align=left;verticalAlign=top;spacingLeft=4;spacingRight=4;overflow=hidden;rotatable=0;points=[[0,0.5],[1,0.5]];portConstraint=eastwest;collapsible=1;collapsed=0;" parent="26" vertex="1">
          <mxGeometry y="26" width="280" height="20" as="geometry" />
        </mxCell>
        <mxCell id="28" value="" style="line;strokeWidth=1;fillColor=none;align=left;verticalAlign=middle;spacingTop=-1;spacingLeft=3;spacingRight=3;rotatable=0;labelPosition=right;points=[];portConstraint=eastwest;strokeColor=inherit;" parent="26" vertex="1">
          <mxGeometry y="46" width="280" height="8" as="geometry" />
        </mxCell>
        <mxCell id="29" value="+ __new__(): LoggingUtils&#xa;+ debug(): void&#xa;+ info(): void&#xa;+ error(): void&#xa;+ success(): void&#xa;+ warning(): void&#xa;+ trace(): void&#xa;+ get_stdout_logger(): Logger&#xa;+ get_stderr_logger(): Logger" style="text;strokeColor=none;fillColor=none;align=left;verticalAlign=top;spacingLeft=4;spacingRight=4;overflow=hidden;rotatable=0;points=[[0,0.5],[1,0.5]];portConstraint=eastwest;collapsible=1;collapsed=0;" parent="26" vertex="1">
          <mxGeometry y="54" width="280" height="100" as="geometry" />
        </mxCell>
        <mxCell id="30" value="GenericUtils" style="swimlane;fontStyle=1;align=center;verticalAlign=top;childLayout=stackLayout;horizontal=1;startSize=26;horizontalStack=0;resizeParent=1;resizeParentMax=0;resizeLast=0;collapsible=1;marginBottom=0;fillColor=#e1d5e7;strokeColor=#9673a6;" parent="1" vertex="1" collapsed="1">
          <mxGeometry x="190" y="880" width="110" height="30" as="geometry">
            <mxRectangle x="400" y="500" width="280" height="104" as="alternateBounds" />
          </mxGeometry>
        </mxCell>
        <mxCell id="31" value="- _instance: GenericUtils" style="text;strokeColor=none;fillColor=none;align=left;verticalAlign=top;spacingLeft=4;spacingRight=4;overflow=hidden;rotatable=0;points=[[0,0.5],[1,0.5]];portConstraint=eastwest;collapsible=1;collapsed=0;" parent="30" vertex="1">
          <mxGeometry y="26" width="280" height="20" as="geometry" />
        </mxCell>
        <mxCell id="32" value="" style="line;strokeWidth=1;fillColor=none;align=left;verticalAlign=middle;spacingTop=-1;spacingLeft=3;spacingRight=3;rotatable=0;labelPosition=right;points=[];portConstraint=eastwest;strokeColor=inherit;" parent="30" vertex="1">
          <mxGeometry y="46" width="280" height="8" as="geometry" />
        </mxCell>
        <mxCell id="33" value="+ __new__(): GenericUtils&#xa;+ load_class(): object&#xa;+ is_truthy(): bool" style="text;strokeColor=none;fillColor=none;align=left;verticalAlign=top;spacingLeft=4;spacingRight=4;overflow=hidden;rotatable=0;points=[[0,0.5],[1,0.5]];portConstraint=eastwest;collapsible=1;collapsed=0;" parent="30" vertex="1">
          <mxGeometry y="54" width="280" height="50" as="geometry" />
        </mxCell>
        <mxCell id="46" value="" style="endArrow=block;endSize=16;endFill=0;html=1;rounded=0;exitX=0.5;exitY=0;exitDx=0;exitDy=0;entryX=0.371;entryY=1.2;entryDx=0;entryDy=0;entryPerimeter=0;" parent="1" source="14" target="9" edge="1">
          <mxGeometry width="160" relative="1" as="geometry">
            <mxPoint x="570" y="300" as="sourcePoint" />
            <mxPoint x="730" y="300" as="targetPoint" />
          </mxGeometry>
        </mxCell>
        <mxCell id="47" value="extends" style="edgeLabel;html=1;align=center;verticalAlign=middle;resizable=0;points=[];" parent="46" vertex="1" connectable="0">
          <mxGeometry x="-0.1" y="2" relative="1" as="geometry">
            <mxPoint as="offset" />
          </mxGeometry>
        </mxCell>
        <mxCell id="48" value="" style="endArrow=block;endSize=16;endFill=0;html=1;rounded=0;exitX=0.5;exitY=0;exitDx=0;exitDy=0;entryX=0.789;entryY=1;entryDx=0;entryDy=0;entryPerimeter=0;" parent="1" source="18" target="9" edge="1">
          <mxGeometry width="160" relative="1" as="geometry">
            <mxPoint x="570" y="300" as="sourcePoint" />
            <mxPoint x="730" y="300" as="targetPoint" />
          </mxGeometry>
        </mxCell>
        <mxCell id="49" value="extends" style="edgeLabel;html=1;align=center;verticalAlign=middle;resizable=0;points=[];" parent="48" vertex="1" connectable="0">
          <mxGeometry x="-0.1" y="2" relative="1" as="geometry">
            <mxPoint as="offset" />
          </mxGeometry>
        </mxCell>
        <mxCell id="50" value="" style="endArrow=diamondThin;endSize=14;html=1;rounded=0;exitX=0.486;exitY=0.972;exitDx=0;exitDy=0;entryX=0.416;entryY=-0.001;entryDx=0;entryDy=0;endFill=1;entryPerimeter=0;exitPerimeter=0;startArrow=open;startFill=0;" parent="1" source="5" target="6" edge="1">
          <mxGeometry width="160" relative="1" as="geometry">
            <mxPoint x="570" y="300" as="sourcePoint" />
            <mxPoint x="730" y="300" as="targetPoint" />
          </mxGeometry>
        </mxCell>
        <mxCell id="51" value="1" style="edgeLabel;html=1;align=center;verticalAlign=middle;resizable=0;points=[];" parent="50" vertex="1" connectable="0">
          <mxGeometry x="0.8" y="1" relative="1" as="geometry">
            <mxPoint x="-10" y="-5" as="offset" />
          </mxGeometry>
        </mxCell>
        <mxCell id="52" value="" style="endArrow=diamondThin;endSize=14;html=1;rounded=0;exitX=1;exitY=0.5;exitDx=0;exitDy=0;entryX=0;entryY=0.5;entryDx=0;entryDy=0;endFill=1;" parent="1" source="26" target="7" edge="1">
          <mxGeometry width="160" relative="1" as="geometry">
            <mxPoint x="570" y="300" as="sourcePoint" />
            <mxPoint x="730" y="300" as="targetPoint" />
          </mxGeometry>
        </mxCell>
        <mxCell id="53" value="1" style="edgeLabel;html=1;align=center;verticalAlign=middle;resizable=0;points=[];" parent="52" vertex="1" connectable="0">
          <mxGeometry x="0.8" y="1" relative="1" as="geometry">
            <mxPoint x="-14" y="7" as="offset" />
          </mxGeometry>
        </mxCell>
        <mxCell id="54" value="" style="endArrow=diamondThin;endSize=14;html=1;rounded=0;entryX=-0.007;entryY=0.183;entryDx=0;entryDy=0;endFill=1;entryPerimeter=0;startSize=12;startArrow=open;startFill=0;exitX=1;exitY=0.5;exitDx=0;exitDy=0;" parent="1" source="30" target="10" edge="1">
          <mxGeometry width="160" relative="1" as="geometry">
            <mxPoint x="320" y="910" as="sourcePoint" />
            <mxPoint x="730" y="300" as="targetPoint" />
          </mxGeometry>
        </mxCell>
        <mxCell id="55" value="1" style="edgeLabel;html=1;align=center;verticalAlign=middle;resizable=0;points=[];" parent="54" vertex="1" connectable="0">
          <mxGeometry x="0.8" y="1" relative="1" as="geometry">
            <mxPoint x="1" y="-12" as="offset" />
          </mxGeometry>
        </mxCell>
        <mxCell id="56" value="" style="endArrow=diamondThin;endSize=14;html=1;rounded=0;exitX=0;exitY=0.5;exitDx=0;exitDy=0;entryX=1;entryY=0.5;entryDx=0;entryDy=0;endFill=1;startSize=12;startArrow=open;startFill=0;" parent="1" source="23" target="11" edge="1">
          <mxGeometry width="160" relative="1" as="geometry">
            <mxPoint x="570" y="300" as="sourcePoint" />
            <mxPoint x="730" y="300" as="targetPoint" />
          </mxGeometry>
        </mxCell>
        <mxCell id="57" value="1" style="edgeLabel;html=1;align=center;verticalAlign=middle;resizable=0;points=[];" parent="56" vertex="1" connectable="0">
          <mxGeometry x="0.8" y="1" relative="1" as="geometry">
            <mxPoint x="-15" y="21" as="offset" />
          </mxGeometry>
        </mxCell>
        <mxCell id="60" value="" style="endArrow=open;endSize=12;dashed=1;html=1;rounded=0;exitX=0.466;exitY=-0.018;exitDx=0;exitDy=0;entryX=0.549;entryY=0.951;entryDx=0;entryDy=0;entryPerimeter=0;exitPerimeter=0;" parent="1" source="10" target="9" edge="1">
          <mxGeometry width="160" relative="1" as="geometry">
            <mxPoint x="570" y="300" as="sourcePoint" />
            <mxPoint x="730" y="300" as="targetPoint" />
          </mxGeometry>
        </mxCell>
        <mxCell id="61" value="creates" style="edgeLabel;html=1;align=center;verticalAlign=middle;resizable=0;points=[];" parent="60" vertex="1" connectable="0">
          <mxGeometry x="-0.1" y="2" relative="1" as="geometry">
            <mxPoint as="offset" />
          </mxGeometry>
        </mxCell>
        <mxCell id="62" value="Singleton Pattern" style="shape=note;whiteSpace=wrap;html=1;backgroundOutline=1;darkOpacity=0.05;fillColor=#fff2cc;strokeColor=#d6b656;" parent="1" vertex="1">
          <mxGeometry x="300" y="82" width="80" height="40" as="geometry" />
        </mxCell>
        <mxCell id="63" value="" style="endArrow=none;dashed=1;html=1;rounded=0;exitX=1;exitY=0.5;exitDx=0;exitDy=0;entryX=0;entryY=0.5;entryDx=0;entryDy=0;" parent="1" source="62" target="2" edge="1">
          <mxGeometry width="50" height="50" relative="1" as="geometry">
            <mxPoint x="570" y="300" as="sourcePoint" />
            <mxPoint x="620" y="250" as="targetPoint" />
          </mxGeometry>
        </mxCell>
        <mxCell id="64" value="Singleton Pattern" style="shape=note;whiteSpace=wrap;html=1;backgroundOutline=1;darkOpacity=0.05;fillColor=#fff2cc;strokeColor=#d6b656;" parent="1" vertex="1">
          <mxGeometry x="330" y="204" width="80" height="40" as="geometry" />
        </mxCell>
        <mxCell id="65" value="" style="endArrow=none;dashed=1;html=1;rounded=0;exitX=0.813;exitY=1;exitDx=0;exitDy=0;entryX=0.071;entryY=0;entryDx=0;entryDy=0;entryPerimeter=0;exitPerimeter=0;" parent="1" source="64" target="6" edge="1">
          <mxGeometry width="50" height="50" relative="1" as="geometry">
            <mxPoint x="570" y="300" as="sourcePoint" />
            <mxPoint x="620" y="250" as="targetPoint" />
          </mxGeometry>
        </mxCell>
        <mxCell id="66" value="Factory Pattern" style="shape=note;whiteSpace=wrap;html=1;backgroundOutline=1;darkOpacity=0.05;fillColor=#fff2cc;strokeColor=#d6b656;" parent="1" vertex="1">
          <mxGeometry x="750" y="924" width="80" height="40" as="geometry" />
        </mxCell>
        <mxCell id="67" value="" style="endArrow=none;dashed=1;html=1;rounded=0;exitX=0;exitY=0.5;exitDx=0;exitDy=0;entryX=0.991;entryY=0.357;entryDx=0;entryDy=0;entryPerimeter=0;" parent="1" source="66" target="13" edge="1">
          <mxGeometry width="50" height="50" relative="1" as="geometry">
            <mxPoint x="570" y="300" as="sourcePoint" />
            <mxPoint x="620" y="250" as="targetPoint" />
          </mxGeometry>
        </mxCell>
        <mxCell id="68" value="Singleton Pattern" style="shape=note;whiteSpace=wrap;html=1;backgroundOutline=1;darkOpacity=0.05;fillColor=#fff2cc;strokeColor=#d6b656;size=33;" parent="1" vertex="1">
          <mxGeometry x="610" y="780" width="80" height="40" as="geometry" />
        </mxCell>
        <mxCell id="69" value="" style="endArrow=none;dashed=1;html=1;rounded=0;entryX=0.837;entryY=0.015;entryDx=0;entryDy=0;entryPerimeter=0;exitX=0.5;exitY=1;exitDx=0;exitDy=0;exitPerimeter=0;" parent="1" source="68" target="10" edge="1">
          <mxGeometry width="50" height="50" relative="1" as="geometry">
            <mxPoint x="640" y="820" as="sourcePoint" />
            <mxPoint x="620" y="250" as="targetPoint" />
          </mxGeometry>
        </mxCell>
        <mxCell id="C2M6MBgzmyJCgWkpR7U2-72" style="rounded=0;orthogonalLoop=1;jettySize=auto;html=1;entryX=0;entryY=0.25;entryDx=0;entryDy=0;exitX=1;exitY=0.5;exitDx=0;exitDy=0;endArrow=open;endFill=0;endSize=14;startArrow=diamondThin;startFill=1;startSize=12;" edge="1" parent="1">
          <mxGeometry relative="1" as="geometry">
            <mxPoint x="701" y="403" as="sourcePoint" />
            <mxPoint x="1051" y="637.5" as="targetPoint" />
          </mxGeometry>
        </mxCell>
        <mxCell id="C2M6MBgzmyJCgWkpR7U2-73" value="1" style="edgeLabel;html=1;align=center;verticalAlign=middle;resizable=0;points=[];" vertex="1" connectable="0" parent="C2M6MBgzmyJCgWkpR7U2-72">
          <mxGeometry x="-0.9238" y="1" relative="1" as="geometry">
            <mxPoint y="-11" as="offset" />
          </mxGeometry>
        </mxCell>
      </root>
    </mxGraphModel>
  </diagram>
</mxfile>
